G04 #@! TF.FileFunction,Legend,Bot*
%FSLAX46Y46*%
G04 Gerber Fmt 4.6, Leading zero omitted, Abs format (unit mm)*
G04 Created by KiCad (PCBNEW 4.0.1-stable) date 2016-06-27 2:05:19 PM*
%MOMM*%
G01*
G04 APERTURE LIST*
%ADD10C,0.100000*%
%ADD11C,0.300000*%
%ADD12C,0.150000*%
G04 APERTURE END LIST*
D10*
D11*
X108913429Y-124630571D02*
X108913429Y-123130571D01*
X108056286Y-124630571D01*
X108056286Y-123130571D01*
X107127714Y-124630571D02*
X107270572Y-124559143D01*
X107342000Y-124487714D01*
X107413429Y-124344857D01*
X107413429Y-123916286D01*
X107342000Y-123773429D01*
X107270572Y-123702000D01*
X107127714Y-123630571D01*
X106913429Y-123630571D01*
X106770572Y-123702000D01*
X106699143Y-123773429D01*
X106627714Y-123916286D01*
X106627714Y-124344857D01*
X106699143Y-124487714D01*
X106770572Y-124559143D01*
X106913429Y-124630571D01*
X107127714Y-124630571D01*
X105342000Y-124630571D02*
X105342000Y-123844857D01*
X105413429Y-123702000D01*
X105556286Y-123630571D01*
X105842000Y-123630571D01*
X105984857Y-123702000D01*
X105342000Y-124559143D02*
X105484857Y-124630571D01*
X105842000Y-124630571D01*
X105984857Y-124559143D01*
X106056286Y-124416286D01*
X106056286Y-124273429D01*
X105984857Y-124130571D01*
X105842000Y-124059143D01*
X105484857Y-124059143D01*
X105342000Y-123987714D01*
X104627714Y-124630571D02*
X104627714Y-123130571D01*
X103984857Y-124630571D02*
X103984857Y-123844857D01*
X104056286Y-123702000D01*
X104199143Y-123630571D01*
X104413428Y-123630571D01*
X104556286Y-123702000D01*
X104627714Y-123773429D01*
X101270571Y-124630571D02*
X101770571Y-123916286D01*
X102127714Y-124630571D02*
X102127714Y-123130571D01*
X101556286Y-123130571D01*
X101413428Y-123202000D01*
X101342000Y-123273429D01*
X101270571Y-123416286D01*
X101270571Y-123630571D01*
X101342000Y-123773429D01*
X101413428Y-123844857D01*
X101556286Y-123916286D01*
X102127714Y-123916286D01*
X100413428Y-124630571D02*
X100556286Y-124559143D01*
X100627714Y-124487714D01*
X100699143Y-124344857D01*
X100699143Y-123916286D01*
X100627714Y-123773429D01*
X100556286Y-123702000D01*
X100413428Y-123630571D01*
X100199143Y-123630571D01*
X100056286Y-123702000D01*
X99984857Y-123773429D01*
X99913428Y-123916286D01*
X99913428Y-124344857D01*
X99984857Y-124487714D01*
X100056286Y-124559143D01*
X100199143Y-124630571D01*
X100413428Y-124630571D01*
X99270571Y-123630571D02*
X99270571Y-124630571D01*
X99270571Y-123773429D02*
X99199143Y-123702000D01*
X99056285Y-123630571D01*
X98842000Y-123630571D01*
X98699143Y-123702000D01*
X98627714Y-123844857D01*
X98627714Y-124630571D01*
X97270571Y-124630571D02*
X97270571Y-123130571D01*
X97270571Y-124559143D02*
X97413428Y-124630571D01*
X97699142Y-124630571D01*
X97842000Y-124559143D01*
X97913428Y-124487714D01*
X97984857Y-124344857D01*
X97984857Y-123916286D01*
X97913428Y-123773429D01*
X97842000Y-123702000D01*
X97699142Y-123630571D01*
X97413428Y-123630571D01*
X97270571Y-123702000D01*
X95984857Y-124559143D02*
X96127714Y-124630571D01*
X96413428Y-124630571D01*
X96556285Y-124559143D01*
X96627714Y-124416286D01*
X96627714Y-123844857D01*
X96556285Y-123702000D01*
X96413428Y-123630571D01*
X96127714Y-123630571D01*
X95984857Y-123702000D01*
X95913428Y-123844857D01*
X95913428Y-123987714D01*
X96627714Y-124130571D01*
X94627714Y-124630571D02*
X94627714Y-123844857D01*
X94699143Y-123702000D01*
X94842000Y-123630571D01*
X95127714Y-123630571D01*
X95270571Y-123702000D01*
X94627714Y-124559143D02*
X94770571Y-124630571D01*
X95127714Y-124630571D01*
X95270571Y-124559143D01*
X95342000Y-124416286D01*
X95342000Y-124273429D01*
X95270571Y-124130571D01*
X95127714Y-124059143D01*
X94770571Y-124059143D01*
X94627714Y-123987714D01*
X93270571Y-123630571D02*
X93270571Y-124630571D01*
X93913428Y-123630571D02*
X93913428Y-124416286D01*
X93842000Y-124559143D01*
X93699142Y-124630571D01*
X93484857Y-124630571D01*
X93342000Y-124559143D01*
X93270571Y-124487714D01*
X124391714Y-122876571D02*
X124391714Y-123948000D01*
X124463142Y-124162286D01*
X124605999Y-124305143D01*
X124820285Y-124376571D01*
X124963142Y-124376571D01*
X123034571Y-124376571D02*
X123034571Y-123590857D01*
X123106000Y-123448000D01*
X123248857Y-123376571D01*
X123534571Y-123376571D01*
X123677428Y-123448000D01*
X123034571Y-124305143D02*
X123177428Y-124376571D01*
X123534571Y-124376571D01*
X123677428Y-124305143D01*
X123748857Y-124162286D01*
X123748857Y-124019429D01*
X123677428Y-123876571D01*
X123534571Y-123805143D01*
X123177428Y-123805143D01*
X123034571Y-123733714D01*
X122320285Y-124376571D02*
X122320285Y-122876571D01*
X122177428Y-123805143D02*
X121748857Y-124376571D01*
X121748857Y-123376571D02*
X122320285Y-123948000D01*
X120534571Y-124305143D02*
X120677428Y-124376571D01*
X120963142Y-124376571D01*
X121105999Y-124305143D01*
X121177428Y-124162286D01*
X121177428Y-123590857D01*
X121105999Y-123448000D01*
X120963142Y-123376571D01*
X120677428Y-123376571D01*
X120534571Y-123448000D01*
X120463142Y-123590857D01*
X120463142Y-123733714D01*
X121177428Y-123876571D01*
X118891714Y-122876571D02*
X118391714Y-124376571D01*
X117891714Y-122876571D01*
X117391714Y-124376571D02*
X117391714Y-123376571D01*
X117391714Y-122876571D02*
X117463143Y-122948000D01*
X117391714Y-123019429D01*
X117320286Y-122948000D01*
X117391714Y-122876571D01*
X117391714Y-123019429D01*
X116034571Y-124376571D02*
X116034571Y-122876571D01*
X116034571Y-124305143D02*
X116177428Y-124376571D01*
X116463142Y-124376571D01*
X116606000Y-124305143D01*
X116677428Y-124233714D01*
X116748857Y-124090857D01*
X116748857Y-123662286D01*
X116677428Y-123519429D01*
X116606000Y-123448000D01*
X116463142Y-123376571D01*
X116177428Y-123376571D01*
X116034571Y-123448000D01*
X114677428Y-124376571D02*
X114677428Y-123590857D01*
X114748857Y-123448000D01*
X114891714Y-123376571D01*
X115177428Y-123376571D01*
X115320285Y-123448000D01*
X114677428Y-124305143D02*
X114820285Y-124376571D01*
X115177428Y-124376571D01*
X115320285Y-124305143D01*
X115391714Y-124162286D01*
X115391714Y-124019429D01*
X115320285Y-123876571D01*
X115177428Y-123805143D01*
X114820285Y-123805143D01*
X114677428Y-123733714D01*
X113748856Y-124376571D02*
X113891714Y-124305143D01*
X113963142Y-124162286D01*
X113963142Y-122876571D01*
X112034571Y-123805143D02*
X110891714Y-123805143D01*
X146112285Y-123948000D02*
X145397999Y-123948000D01*
X146255142Y-124376571D02*
X145755142Y-122876571D01*
X145255142Y-124376571D01*
X144540856Y-124376571D02*
X144683714Y-124305143D01*
X144755142Y-124162286D01*
X144755142Y-122876571D01*
X143398000Y-124305143D02*
X143540857Y-124376571D01*
X143826571Y-124376571D01*
X143969428Y-124305143D01*
X144040857Y-124162286D01*
X144040857Y-123590857D01*
X143969428Y-123448000D01*
X143826571Y-123376571D01*
X143540857Y-123376571D01*
X143398000Y-123448000D01*
X143326571Y-123590857D01*
X143326571Y-123733714D01*
X144040857Y-123876571D01*
X142826571Y-124376571D02*
X142040857Y-123376571D01*
X142826571Y-123376571D02*
X142040857Y-124376571D01*
X140826571Y-124376571D02*
X140826571Y-123590857D01*
X140898000Y-123448000D01*
X141040857Y-123376571D01*
X141326571Y-123376571D01*
X141469428Y-123448000D01*
X140826571Y-124305143D02*
X140969428Y-124376571D01*
X141326571Y-124376571D01*
X141469428Y-124305143D01*
X141540857Y-124162286D01*
X141540857Y-124019429D01*
X141469428Y-123876571D01*
X141326571Y-123805143D01*
X140969428Y-123805143D01*
X140826571Y-123733714D01*
X140112285Y-123376571D02*
X140112285Y-124376571D01*
X140112285Y-123519429D02*
X140040857Y-123448000D01*
X139897999Y-123376571D01*
X139683714Y-123376571D01*
X139540857Y-123448000D01*
X139469428Y-123590857D01*
X139469428Y-124376571D01*
X138112285Y-124376571D02*
X138112285Y-122876571D01*
X138112285Y-124305143D02*
X138255142Y-124376571D01*
X138540856Y-124376571D01*
X138683714Y-124305143D01*
X138755142Y-124233714D01*
X138826571Y-124090857D01*
X138826571Y-123662286D01*
X138755142Y-123519429D01*
X138683714Y-123448000D01*
X138540856Y-123376571D01*
X138255142Y-123376571D01*
X138112285Y-123448000D01*
X136826571Y-124305143D02*
X136969428Y-124376571D01*
X137255142Y-124376571D01*
X137397999Y-124305143D01*
X137469428Y-124162286D01*
X137469428Y-123590857D01*
X137397999Y-123448000D01*
X137255142Y-123376571D01*
X136969428Y-123376571D01*
X136826571Y-123448000D01*
X136755142Y-123590857D01*
X136755142Y-123733714D01*
X137469428Y-123876571D01*
X136112285Y-124376571D02*
X136112285Y-123376571D01*
X136112285Y-123662286D02*
X136040857Y-123519429D01*
X135969428Y-123448000D01*
X135826571Y-123376571D01*
X135683714Y-123376571D01*
X133183714Y-124233714D02*
X133255143Y-124305143D01*
X133469429Y-124376571D01*
X133612286Y-124376571D01*
X133826571Y-124305143D01*
X133969429Y-124162286D01*
X134040857Y-124019429D01*
X134112286Y-123733714D01*
X134112286Y-123519429D01*
X134040857Y-123233714D01*
X133969429Y-123090857D01*
X133826571Y-122948000D01*
X133612286Y-122876571D01*
X133469429Y-122876571D01*
X133255143Y-122948000D01*
X133183714Y-123019429D01*
X132326571Y-124376571D02*
X132469429Y-124305143D01*
X132540857Y-124233714D01*
X132612286Y-124090857D01*
X132612286Y-123662286D01*
X132540857Y-123519429D01*
X132469429Y-123448000D01*
X132326571Y-123376571D01*
X132112286Y-123376571D01*
X131969429Y-123448000D01*
X131898000Y-123519429D01*
X131826571Y-123662286D01*
X131826571Y-124090857D01*
X131898000Y-124233714D01*
X131969429Y-124305143D01*
X132112286Y-124376571D01*
X132326571Y-124376571D01*
X131398000Y-123376571D02*
X130826571Y-123376571D01*
X131183714Y-122876571D02*
X131183714Y-124162286D01*
X131112286Y-124305143D01*
X130969428Y-124376571D01*
X130826571Y-124376571D01*
X129755143Y-124305143D02*
X129898000Y-124376571D01*
X130183714Y-124376571D01*
X130326571Y-124305143D01*
X130398000Y-124162286D01*
X130398000Y-123590857D01*
X130326571Y-123448000D01*
X130183714Y-123376571D01*
X129898000Y-123376571D01*
X129755143Y-123448000D01*
X129683714Y-123590857D01*
X129683714Y-123733714D01*
X130398000Y-123876571D01*
X129898000Y-122805143D02*
X130112285Y-123019429D01*
X127898000Y-123805143D02*
X126755143Y-123805143D01*
X146176000Y-121582571D02*
X146176000Y-120082571D01*
X145818857Y-120082571D01*
X145604572Y-120154000D01*
X145461714Y-120296857D01*
X145390286Y-120439714D01*
X145318857Y-120725429D01*
X145318857Y-120939714D01*
X145390286Y-121225429D01*
X145461714Y-121368286D01*
X145604572Y-121511143D01*
X145818857Y-121582571D01*
X146176000Y-121582571D01*
X144104572Y-121511143D02*
X144247429Y-121582571D01*
X144533143Y-121582571D01*
X144676000Y-121511143D01*
X144747429Y-121368286D01*
X144747429Y-120796857D01*
X144676000Y-120654000D01*
X144533143Y-120582571D01*
X144247429Y-120582571D01*
X144104572Y-120654000D01*
X144033143Y-120796857D01*
X144033143Y-120939714D01*
X144747429Y-121082571D01*
X143461715Y-121511143D02*
X143318858Y-121582571D01*
X143033143Y-121582571D01*
X142890286Y-121511143D01*
X142818858Y-121368286D01*
X142818858Y-121296857D01*
X142890286Y-121154000D01*
X143033143Y-121082571D01*
X143247429Y-121082571D01*
X143390286Y-121011143D01*
X143461715Y-120868286D01*
X143461715Y-120796857D01*
X143390286Y-120654000D01*
X143247429Y-120582571D01*
X143033143Y-120582571D01*
X142890286Y-120654000D01*
X142176000Y-121582571D02*
X142176000Y-120582571D01*
X142176000Y-120082571D02*
X142247429Y-120154000D01*
X142176000Y-120225429D01*
X142104572Y-120154000D01*
X142176000Y-120082571D01*
X142176000Y-120225429D01*
X140818857Y-120582571D02*
X140818857Y-121796857D01*
X140890286Y-121939714D01*
X140961714Y-122011143D01*
X141104571Y-122082571D01*
X141318857Y-122082571D01*
X141461714Y-122011143D01*
X140818857Y-121511143D02*
X140961714Y-121582571D01*
X141247428Y-121582571D01*
X141390286Y-121511143D01*
X141461714Y-121439714D01*
X141533143Y-121296857D01*
X141533143Y-120868286D01*
X141461714Y-120725429D01*
X141390286Y-120654000D01*
X141247428Y-120582571D01*
X140961714Y-120582571D01*
X140818857Y-120654000D01*
X140104571Y-120582571D02*
X140104571Y-121582571D01*
X140104571Y-120725429D02*
X140033143Y-120654000D01*
X139890285Y-120582571D01*
X139676000Y-120582571D01*
X139533143Y-120654000D01*
X139461714Y-120796857D01*
X139461714Y-121582571D01*
X138176000Y-121511143D02*
X138318857Y-121582571D01*
X138604571Y-121582571D01*
X138747428Y-121511143D01*
X138818857Y-121368286D01*
X138818857Y-120796857D01*
X138747428Y-120654000D01*
X138604571Y-120582571D01*
X138318857Y-120582571D01*
X138176000Y-120654000D01*
X138104571Y-120796857D01*
X138104571Y-120939714D01*
X138818857Y-121082571D01*
X136818857Y-121582571D02*
X136818857Y-120082571D01*
X136818857Y-121511143D02*
X136961714Y-121582571D01*
X137247428Y-121582571D01*
X137390286Y-121511143D01*
X137461714Y-121439714D01*
X137533143Y-121296857D01*
X137533143Y-120868286D01*
X137461714Y-120725429D01*
X137390286Y-120654000D01*
X137247428Y-120582571D01*
X136961714Y-120582571D01*
X136818857Y-120654000D01*
X134961714Y-121582571D02*
X134961714Y-120082571D01*
X134961714Y-120654000D02*
X134818857Y-120582571D01*
X134533143Y-120582571D01*
X134390286Y-120654000D01*
X134318857Y-120725429D01*
X134247428Y-120868286D01*
X134247428Y-121296857D01*
X134318857Y-121439714D01*
X134390286Y-121511143D01*
X134533143Y-121582571D01*
X134818857Y-121582571D01*
X134961714Y-121511143D01*
X133747428Y-120582571D02*
X133390285Y-121582571D01*
X133033143Y-120582571D02*
X133390285Y-121582571D01*
X133533143Y-121939714D01*
X133604571Y-122011143D01*
X133747428Y-122082571D01*
X132461714Y-121439714D02*
X132390286Y-121511143D01*
X132461714Y-121582571D01*
X132533143Y-121511143D01*
X132461714Y-121439714D01*
X132461714Y-121582571D01*
X132461714Y-120654000D02*
X132390286Y-120725429D01*
X132461714Y-120796857D01*
X132533143Y-120725429D01*
X132461714Y-120654000D01*
X132461714Y-120796857D01*
D12*
X102167000Y-82788000D02*
X102167000Y-80788000D01*
X100017000Y-80788000D02*
X100017000Y-82788000D01*
X109161000Y-87900000D02*
X109161000Y-89900000D01*
X111311000Y-89900000D02*
X111311000Y-87900000D01*
X116316000Y-109923000D02*
X114316000Y-109923000D01*
X114316000Y-112073000D02*
X116316000Y-112073000D01*
X122190000Y-69909000D02*
X124190000Y-69909000D01*
X124190000Y-67759000D02*
X122190000Y-67759000D01*
X116824000Y-67759000D02*
X114824000Y-67759000D01*
X114824000Y-69909000D02*
X116824000Y-69909000D01*
X108145000Y-65802000D02*
X108145000Y-67802000D01*
X110295000Y-67802000D02*
X110295000Y-65802000D01*
X98865000Y-78470000D02*
X98865000Y-76470000D01*
X96715000Y-76470000D02*
X96715000Y-78470000D01*
X98940857Y-82494381D02*
X99274191Y-82018190D01*
X99512286Y-82494381D02*
X99512286Y-81494381D01*
X99131333Y-81494381D01*
X99036095Y-81542000D01*
X98988476Y-81589619D01*
X98940857Y-81684857D01*
X98940857Y-81827714D01*
X98988476Y-81922952D01*
X99036095Y-81970571D01*
X99131333Y-82018190D01*
X99512286Y-82018190D01*
X97988476Y-82494381D02*
X98559905Y-82494381D01*
X98274191Y-82494381D02*
X98274191Y-81494381D01*
X98369429Y-81637238D01*
X98464667Y-81732476D01*
X98559905Y-81780095D01*
X97512286Y-82494381D02*
X97321810Y-82494381D01*
X97226571Y-82446762D01*
X97178952Y-82399143D01*
X97083714Y-82256286D01*
X97036095Y-82065810D01*
X97036095Y-81684857D01*
X97083714Y-81589619D01*
X97131333Y-81542000D01*
X97226571Y-81494381D01*
X97417048Y-81494381D01*
X97512286Y-81542000D01*
X97559905Y-81589619D01*
X97607524Y-81684857D01*
X97607524Y-81922952D01*
X97559905Y-82018190D01*
X97512286Y-82065810D01*
X97417048Y-82113429D01*
X97226571Y-82113429D01*
X97131333Y-82065810D01*
X97083714Y-82018190D01*
X97036095Y-81922952D01*
X111386857Y-85034381D02*
X111720191Y-84558190D01*
X111958286Y-85034381D02*
X111958286Y-84034381D01*
X111577333Y-84034381D01*
X111482095Y-84082000D01*
X111434476Y-84129619D01*
X111386857Y-84224857D01*
X111386857Y-84367714D01*
X111434476Y-84462952D01*
X111482095Y-84510571D01*
X111577333Y-84558190D01*
X111958286Y-84558190D01*
X111005905Y-84129619D02*
X110958286Y-84082000D01*
X110863048Y-84034381D01*
X110624952Y-84034381D01*
X110529714Y-84082000D01*
X110482095Y-84129619D01*
X110434476Y-84224857D01*
X110434476Y-84320095D01*
X110482095Y-84462952D01*
X111053524Y-85034381D01*
X110434476Y-85034381D01*
X109815429Y-84034381D02*
X109720190Y-84034381D01*
X109624952Y-84082000D01*
X109577333Y-84129619D01*
X109529714Y-84224857D01*
X109482095Y-84415333D01*
X109482095Y-84653429D01*
X109529714Y-84843905D01*
X109577333Y-84939143D01*
X109624952Y-84986762D01*
X109720190Y-85034381D01*
X109815429Y-85034381D01*
X109910667Y-84986762D01*
X109958286Y-84939143D01*
X110005905Y-84843905D01*
X110053524Y-84653429D01*
X110053524Y-84415333D01*
X110005905Y-84224857D01*
X109958286Y-84129619D01*
X109910667Y-84082000D01*
X109815429Y-84034381D01*
X115958857Y-113750381D02*
X116292191Y-113274190D01*
X116530286Y-113750381D02*
X116530286Y-112750381D01*
X116149333Y-112750381D01*
X116054095Y-112798000D01*
X116006476Y-112845619D01*
X115958857Y-112940857D01*
X115958857Y-113083714D01*
X116006476Y-113178952D01*
X116054095Y-113226571D01*
X116149333Y-113274190D01*
X116530286Y-113274190D01*
X115577905Y-112845619D02*
X115530286Y-112798000D01*
X115435048Y-112750381D01*
X115196952Y-112750381D01*
X115101714Y-112798000D01*
X115054095Y-112845619D01*
X115006476Y-112940857D01*
X115006476Y-113036095D01*
X115054095Y-113178952D01*
X115625524Y-113750381D01*
X115006476Y-113750381D01*
X114673143Y-112750381D02*
X114054095Y-112750381D01*
X114387429Y-113131333D01*
X114244571Y-113131333D01*
X114149333Y-113178952D01*
X114101714Y-113226571D01*
X114054095Y-113321810D01*
X114054095Y-113559905D01*
X114101714Y-113655143D01*
X114149333Y-113702762D01*
X114244571Y-113750381D01*
X114530286Y-113750381D01*
X114625524Y-113702762D01*
X114673143Y-113655143D01*
X123832857Y-71318381D02*
X124166191Y-70842190D01*
X124404286Y-71318381D02*
X124404286Y-70318381D01*
X124023333Y-70318381D01*
X123928095Y-70366000D01*
X123880476Y-70413619D01*
X123832857Y-70508857D01*
X123832857Y-70651714D01*
X123880476Y-70746952D01*
X123928095Y-70794571D01*
X124023333Y-70842190D01*
X124404286Y-70842190D01*
X123451905Y-70413619D02*
X123404286Y-70366000D01*
X123309048Y-70318381D01*
X123070952Y-70318381D01*
X122975714Y-70366000D01*
X122928095Y-70413619D01*
X122880476Y-70508857D01*
X122880476Y-70604095D01*
X122928095Y-70746952D01*
X123499524Y-71318381D01*
X122880476Y-71318381D01*
X122023333Y-70651714D02*
X122023333Y-71318381D01*
X122261429Y-70270762D02*
X122499524Y-70985048D01*
X121880476Y-70985048D01*
X116974857Y-71572381D02*
X117308191Y-71096190D01*
X117546286Y-71572381D02*
X117546286Y-70572381D01*
X117165333Y-70572381D01*
X117070095Y-70620000D01*
X117022476Y-70667619D01*
X116974857Y-70762857D01*
X116974857Y-70905714D01*
X117022476Y-71000952D01*
X117070095Y-71048571D01*
X117165333Y-71096190D01*
X117546286Y-71096190D01*
X116593905Y-70667619D02*
X116546286Y-70620000D01*
X116451048Y-70572381D01*
X116212952Y-70572381D01*
X116117714Y-70620000D01*
X116070095Y-70667619D01*
X116022476Y-70762857D01*
X116022476Y-70858095D01*
X116070095Y-71000952D01*
X116641524Y-71572381D01*
X116022476Y-71572381D01*
X115117714Y-70572381D02*
X115593905Y-70572381D01*
X115641524Y-71048571D01*
X115593905Y-71000952D01*
X115498667Y-70953333D01*
X115260571Y-70953333D01*
X115165333Y-71000952D01*
X115117714Y-71048571D01*
X115070095Y-71143810D01*
X115070095Y-71381905D01*
X115117714Y-71477143D01*
X115165333Y-71524762D01*
X115260571Y-71572381D01*
X115498667Y-71572381D01*
X115593905Y-71524762D01*
X115641524Y-71477143D01*
X109862857Y-62936381D02*
X110196191Y-62460190D01*
X110434286Y-62936381D02*
X110434286Y-61936381D01*
X110053333Y-61936381D01*
X109958095Y-61984000D01*
X109910476Y-62031619D01*
X109862857Y-62126857D01*
X109862857Y-62269714D01*
X109910476Y-62364952D01*
X109958095Y-62412571D01*
X110053333Y-62460190D01*
X110434286Y-62460190D01*
X109481905Y-62031619D02*
X109434286Y-61984000D01*
X109339048Y-61936381D01*
X109100952Y-61936381D01*
X109005714Y-61984000D01*
X108958095Y-62031619D01*
X108910476Y-62126857D01*
X108910476Y-62222095D01*
X108958095Y-62364952D01*
X109529524Y-62936381D01*
X108910476Y-62936381D01*
X108053333Y-61936381D02*
X108243810Y-61936381D01*
X108339048Y-61984000D01*
X108386667Y-62031619D01*
X108481905Y-62174476D01*
X108529524Y-62364952D01*
X108529524Y-62745905D01*
X108481905Y-62841143D01*
X108434286Y-62888762D01*
X108339048Y-62936381D01*
X108148571Y-62936381D01*
X108053333Y-62888762D01*
X108005714Y-62841143D01*
X107958095Y-62745905D01*
X107958095Y-62507810D01*
X108005714Y-62412571D01*
X108053333Y-62364952D01*
X108148571Y-62317333D01*
X108339048Y-62317333D01*
X108434286Y-62364952D01*
X108481905Y-62412571D01*
X108529524Y-62507810D01*
X101480857Y-77922381D02*
X101814191Y-77446190D01*
X102052286Y-77922381D02*
X102052286Y-76922381D01*
X101671333Y-76922381D01*
X101576095Y-76970000D01*
X101528476Y-77017619D01*
X101480857Y-77112857D01*
X101480857Y-77255714D01*
X101528476Y-77350952D01*
X101576095Y-77398571D01*
X101671333Y-77446190D01*
X102052286Y-77446190D01*
X101147524Y-76922381D02*
X100528476Y-76922381D01*
X100861810Y-77303333D01*
X100718952Y-77303333D01*
X100623714Y-77350952D01*
X100576095Y-77398571D01*
X100528476Y-77493810D01*
X100528476Y-77731905D01*
X100576095Y-77827143D01*
X100623714Y-77874762D01*
X100718952Y-77922381D01*
X101004667Y-77922381D01*
X101099905Y-77874762D01*
X101147524Y-77827143D01*
X99909429Y-76922381D02*
X99814190Y-76922381D01*
X99718952Y-76970000D01*
X99671333Y-77017619D01*
X99623714Y-77112857D01*
X99576095Y-77303333D01*
X99576095Y-77541429D01*
X99623714Y-77731905D01*
X99671333Y-77827143D01*
X99718952Y-77874762D01*
X99814190Y-77922381D01*
X99909429Y-77922381D01*
X100004667Y-77874762D01*
X100052286Y-77827143D01*
X100099905Y-77731905D01*
X100147524Y-77541429D01*
X100147524Y-77303333D01*
X100099905Y-77112857D01*
X100052286Y-77017619D01*
X100004667Y-76970000D01*
X99909429Y-76922381D01*
M02*
