M48
;DRILL file {KiCad 4.0.1-stable} date 2016-06-27 2:01:26 PM
;FORMAT={-:-/ absolute / inch / decimal}
FMAT,2
INCH,TZ
T1C0.016
T2C0.028
T3C0.031
T4C0.032
T5C0.035
T6C0.035
T7C0.040
T8C0.042
T9C0.052
T10C0.125
%
G90
G05
M72
T1
X4.Y-2.97
X4.07Y-4.02
X4.24Y-3.98
X4.38Y-2.73
X4.38Y-2.83
X5.03Y-4.66
T2
X3.91Y-4.51
X3.96Y-4.51
X3.99Y-3.91
X4.01Y-4.51
X4.04Y-3.91
X4.09Y-3.91
X4.16Y-3.28
X4.17Y-2.37
X4.17Y-4.12
X4.18Y-3.42
X4.18Y-3.47
X4.18Y-3.52
X4.18Y-3.64
X4.18Y-3.69
X4.18Y-3.74
X4.21Y-3.28
X4.22Y-2.37
X4.22Y-4.12
X4.26Y-3.28
X4.27Y-2.37
X4.27Y-4.12
X4.29Y-4.43
X4.29Y-4.48
X4.29Y-4.53
X4.42Y-2.55
X4.43Y-4.18
X4.47Y-2.55
X4.48Y-4.18
X4.52Y-2.55
X4.53Y-4.18
X4.59Y-4.54
X4.59Y-4.59
X4.59Y-4.64
X4.66Y-2.54
X4.7Y-4.18
X4.71Y-2.54
X4.75Y-4.18
X4.76Y-2.54
X4.8Y-4.18
X5.31Y-2.52
X5.31Y-2.57
X5.31Y-2.62
T3
X5.15Y-4.01
T4
X5.15Y-4.1084
T5
X4.02Y-2.39
X4.02Y-2.5869
X4.19Y-2.6231
X4.19Y-2.82
X4.48Y-2.85
X4.67Y-2.9831
X4.67Y-3.18
X4.6769Y-2.85
X4.7431Y-4.38
X4.78Y-2.24
X4.81Y-2.87
X4.81Y-2.97
X4.81Y-3.07
X4.81Y-3.17
X4.9Y-2.3931
X4.9Y-2.59
X4.94Y-4.38
X4.9769Y-2.24
X5.03Y-3.52
X5.03Y-3.62
X5.03Y-3.72
X5.03Y-3.82
X5.11Y-2.87
X5.11Y-2.97
X5.11Y-3.07
X5.11Y-3.17
X5.15Y-4.64
X5.27Y-3.1631
X5.27Y-3.36
X5.3Y-4.0831
X5.3Y-4.28
X5.33Y-3.52
X5.33Y-3.62
X5.33Y-3.72
X5.33Y-3.82
X5.3469Y-4.64
T6
X5.09Y-2.4931
X5.09Y-2.69
T7
X4.41Y-3.99
X4.49Y-3.85
X4.79Y-3.47
T8
X3.6Y-2.24
X3.6Y-2.34
X3.6Y-2.44
X3.6Y-2.54
X3.6Y-2.64
X3.6Y-2.74
X3.6Y-2.84
X3.6Y-2.94
X3.6Y-3.04
X3.6Y-3.14
X3.6Y-3.24
X3.6Y-3.34
X3.6Y-3.44
X3.6Y-3.54
X3.6Y-3.64
X3.6Y-3.74
X3.6Y-3.84
X3.6Y-3.94
X3.6Y-4.04
X3.6Y-4.14
X3.6Y-4.24
X3.6Y-4.34
X3.6Y-4.44
X3.6Y-4.54
X3.6Y-4.64
X3.7Y-2.24
X3.7Y-2.34
X3.7Y-2.44
X3.7Y-2.54
X3.7Y-2.64
X3.7Y-2.74
X3.7Y-2.84
X3.7Y-2.94
X3.7Y-3.04
X3.7Y-3.14
X3.7Y-3.24
X3.7Y-3.34
X3.7Y-3.44
X3.7Y-3.54
X3.7Y-3.64
X3.7Y-3.74
X3.7Y-3.84
X3.7Y-3.94
X3.7Y-4.04
X3.7Y-4.14
X3.7Y-4.24
X3.7Y-4.34
X3.7Y-4.44
X3.7Y-4.54
X3.7Y-4.64
X3.87Y-2.53
X3.87Y-2.63
X3.87Y-2.83
X4.02Y-2.25
X4.03Y-2.74
X4.03Y-2.84
X4.19Y-2.96
X4.49Y-3.15
X4.49Y-3.25
X4.49Y-3.35
X4.49Y-3.45
X4.49Y-3.55
X4.49Y-3.65
X4.49Y-3.75
X4.51Y-3.99
X4.61Y-3.99
X4.71Y-3.99
X4.79Y-3.57
X4.79Y-3.67
X4.79Y-3.83
X4.81Y-3.99
X4.98Y-4.
X4.98Y-4.1
X4.98Y-4.24
X5.11Y-2.35
X5.15Y-4.23
X5.15Y-4.33
X5.15Y-4.49
X5.34Y-2.38
X5.43Y-3.2
X5.43Y-3.3
X5.44Y-2.38
X5.44Y-4.01
X5.44Y-4.11
X5.44Y-4.26
X5.6Y-2.24
X5.6Y-2.34
X5.6Y-2.44
X5.6Y-2.54
X5.6Y-2.64
X5.6Y-2.74
X5.6Y-2.84
X5.6Y-2.94
X5.6Y-3.04
X5.6Y-3.14
X5.6Y-3.24
X5.6Y-3.34
X5.6Y-3.44
X5.6Y-3.54
X5.6Y-3.64
X5.6Y-3.74
X5.6Y-3.84
X5.6Y-3.94
X5.6Y-4.04
X5.6Y-4.14
X5.6Y-4.24
X5.6Y-4.34
X5.6Y-4.44
X5.6Y-4.54
X5.6Y-4.64
X5.7Y-2.24
X5.7Y-2.34
X5.7Y-2.44
X5.7Y-2.54
X5.7Y-2.64
X5.7Y-2.74
X5.7Y-2.84
X5.7Y-2.94
X5.7Y-3.04
X5.7Y-3.14
X5.7Y-3.24
X5.7Y-3.34
X5.7Y-3.44
X5.7Y-3.54
X5.7Y-3.64
X5.7Y-3.74
X5.7Y-3.84
X5.7Y-3.94
X5.7Y-4.04
X5.7Y-4.14
X5.7Y-4.24
X5.7Y-4.34
X5.7Y-4.44
X5.7Y-4.54
X5.7Y-4.64
T9
X5.27Y-2.8
X5.27Y-2.9
X5.27Y-3.
T10
X3.39Y-4.84
X3.41Y-3.71
X5.12Y-2.13
X5.89Y-3.58
X5.9Y-2.34
X5.91Y-4.84
T0
M30
